<svg xmlns="http://www.w3.org/2000/svg" width="224" height="32" viewBox="0 0 224 32" role="img" aria-label="Tech icon set">
  <svg x="0" y="0" width="32" height="32" viewBox="0 0 32 32"><rect width="32" height="32" rx="7" fill="#E34F26"/><text x="16" y="20" text-anchor="middle" font-family="Arial, Helvetica, sans-serif" font-size="10" font-weight="700" fill="#fff">HTML</text></svg>
  <svg x="32" y="0" width="32" height="32" viewBox="0 0 32 32"><rect width="32" height="32" rx="7" fill="#1572B6"/><text x="16" y="20" text-anchor="middle" font-family="Arial, Helvetica, sans-serif" font-size="11" font-weight="700" fill="#fff">CSS</text></svg>
  <svg x="64" y="0" width="32" height="32" viewBox="0 0 32 32"><rect width="32" height="32" rx="7" fill="#F7DF1E"/><text x="16" y="21" text-anchor="middle" font-family="Arial, Helvetica, sans-serif" font-size="13" font-weight="800" fill="#111">JS</text></svg>
  <svg x="96" y="0" width="32" height="32" viewBox="0 0 32 32"><rect width="32" height="32" rx="7" fill="#fff"/><circle cx="12" cy="9" r="4" fill="#F24E1E"/><circle cx="20" cy="9" r="4" fill="#FF7262"/><circle cx="12" cy="17" r="4" fill="#A259FF"/><circle cx="20" cy="17" r="4" fill="#1ABCFE"/><circle cx="12" cy="25" r="4" fill="#0ACF83"/></svg>
  <svg x="128" y="0" width="32" height="32" viewBox="0 0 32 32"><rect width="32" height="32" rx="7" fill="#001E36"/><text x="16" y="21" text-anchor="middle" font-family="Arial, Helvetica, sans-serif" font-size="13" font-weight="800" fill="#31A8FF">Ps</text></svg>
  <svg x="160" y="0" width="32" height="32" viewBox="0 0 32 32"><rect width="32" height="32" rx="7" fill="#330000"/><text x="16" y="21" text-anchor="middle" font-family="Arial, Helvetica, sans-serif" font-size="13" font-weight="800" fill="#FF9A00">Ai</text></svg>
  <svg x="192" y="0" width="32" height="32" viewBox="0 0 32 32"><rect width="32" height="32" rx="7" fill="#181717"/><path fill="#fff" d="M16 5.8c-5.7 0-10.3 4.6-10.3 10.3 0 4.6 3 8.5 7.1 9.8.5.1.7-.2.7-.5v-1.8c-2.9.6-3.5-1.2-3.5-1.2-.5-1.1-1.1-1.4-1.1-1.4-.9-.6.1-.6.1-.6 1 .1 1.6 1.1 1.6 1.1.9 1.6 2.4 1.1 3 .9.1-.7.4-1.1.7-1.4-2.3-.3-4.7-1.2-4.7-5.1 0-1.1.4-2.1 1.1-2.8-.1-.3-.5-1.3.1-2.8 0 0 .9-.3 2.8 1.1.8-.2 1.6-.3 2.5-.3s1.7.1 2.5.3c1.9-1.3 2.8-1.1 2.8-1.1.6 1.5.2 2.5.1 2.8.7.8 1.1 1.7 1.1 2.8 0 4-2.4 4.8-4.7 5.1.4.3.7 1 .7 2v2.9c0 .3.2.6.7.5 4.1-1.4 7.1-5.2 7.1-9.8C26.3 10.4 21.7 5.8 16 5.8z"/></svg>
</svg>
