<svg xmlns="http://www.w3.org/2000/svg" width="32" height="32" viewBox="0 0 32 32" role="img" aria-label="GitHub icon">
  <rect width="32" height="32" rx="7" fill="#181717"/>
  <path fill="#fff" d="M16 5.8c-5.7 0-10.3 4.6-10.3 10.3 0 4.6 3 8.5 7.1 9.8.5.1.7-.2.7-.5v-1.8c-2.9.6-3.5-1.2-3.5-1.2-.5-1.1-1.1-1.4-1.1-1.4-.9-.6.1-.6.1-.6 1 .1 1.6 1.1 1.6 1.1.9 1.6 2.4 1.1 3 .9.1-.7.4-1.1.7-1.4-2.3-.3-4.7-1.2-4.7-5.1 0-1.1.4-2.1 1.1-2.8-.1-.3-.5-1.3.1-2.8 0 0 .9-.3 2.8 1.1.8-.2 1.6-.3 2.5-.3s1.7.1 2.5.3c1.9-1.3 2.8-1.1 2.8-1.1.6 1.5.2 2.5.1 2.8.7.8 1.1 1.7 1.1 2.8 0 4-2.4 4.8-4.7 5.1.4.3.7 1 .7 2v2.9c0 .3.2.6.7.5 4.1-1.4 7.1-5.2 7.1-9.8C26.3 10.4 21.7 5.8 16 5.8z"/>
</svg>
